<?xml version="1.0" encoding="utf-8"?>
<!-- Generator: Adobe Illustrator 21.0.2, SVG Export Plug-In . SVG Version: 6.00 Build 0)  -->
<svg version="1.1" id="icon-sheet" xmlns="http://www.w3.org/2000/svg" xmlns:xlink="http://www.w3.org/1999/xlink" x="0px" y="0px">
<style type="text/css">
	.st0{fill:#F29100;}
	.st1{fill-rule:evenodd;clip-rule:evenodd;fill:#FFFFFF;}
	.st2{fill-rule:evenodd;clip-rule:evenodd;fill:#F29100;}
	.st3{fill:#153265;}
	.st4{fill-rule:evenodd;clip-rule:evenodd;fill:#153265;}
</style>
<g>
	<circle class="st0" cx="40" cy="40" r="40"/>
	<g>
		<path class="st1" d="M46.2,20.6H33.8c-5.6,0-10.2,4.5-10.2,10.1V53h32.8V30.7C56.4,25.1,51.8,20.6,46.2,20.6L46.2,20.6z
			 M54.8,51.4H25.2V30.7c0-4.7,3.9-8.5,8.6-8.5h12.3c4.8,0,8.6,3.8,8.6,8.5V51.4z M47.6,16.4H32.3V18h15.3L47.6,16.4L47.6,16.4z
			 M29.9,41.9c-1.7,0-3.1,1.4-3.1,3c0,1.7,1.4,3,3.1,3c1.7,0,3.1-1.4,3.1-3C32.9,43.3,31.6,41.9,29.9,41.9L29.9,41.9z M29.9,46.4
			c-0.8,0-1.4-0.6-1.4-1.4c0-0.8,0.6-1.4,1.4-1.4c0.8,0,1.4,0.6,1.4,1.4C31.3,45.7,30.7,46.4,29.9,46.4L29.9,46.4z M50.1,41.9
			c-1.7,0-3.1,1.4-3.1,3c0,1.7,1.4,3,3.1,3c1.7,0,3.1-1.4,3.1-3C53.1,43.3,51.7,41.9,50.1,41.9L50.1,41.9z M50.1,46.4
			c-0.8,0-1.4-0.6-1.4-1.4c0-0.8,0.6-1.4,1.4-1.4c0.8,0,1.4,0.6,1.4,1.4C51.5,45.7,50.9,46.4,50.1,46.4L50.1,46.4z M25.3,62.8
			l1.4,0.8l5.3-8.8L30.6,54L25.3,62.8z M47.9,54.9l5.3,8.8l1.4-0.8L49.3,54L47.9,54.9z M52.1,31c0-2.8-2.3-5.2-5.2-5.2H33.1
			c-2.9,0-5.2,2.3-5.2,5.2v8.3h24.2V31z M50.5,37.6h-21V31c0-2,1.6-3.6,3.6-3.6h13.7c2,0,3.6,1.6,3.6,3.6V37.6z M50.5,37.6"/>
	</g>
</g>
<g>
	<g>
		<path class="st0" d="M120,3c20.4,0,37,16.6,37,37s-16.6,37-37,37S83,60.4,83,40S99.6,3,120,3 M120,0C97.9,0,80,17.9,80,40
			s17.9,40,40,40s40-17.9,40-40S142.1,0,120,0L120,0z"/>
	</g>
	<g>
		<path class="st2" d="M126.2,20.6h-12.3c-5.6,0-10.2,4.5-10.2,10.1V53h32.8V30.7C136.4,25.1,131.8,20.6,126.2,20.6L126.2,20.6z
			 M134.8,51.4h-29.6V30.7c0-4.7,3.9-8.5,8.6-8.5h12.3c4.8,0,8.6,3.8,8.6,8.5V51.4z M127.6,16.4h-15.3V18h15.3L127.6,16.4
			L127.6,16.4z M109.9,41.9c-1.7,0-3.1,1.4-3.1,3c0,1.7,1.4,3,3.1,3c1.7,0,3.1-1.4,3.1-3C112.9,43.3,111.6,41.9,109.9,41.9
			L109.9,41.9z M109.9,46.4c-0.8,0-1.4-0.6-1.4-1.4c0-0.8,0.6-1.4,1.4-1.4c0.8,0,1.4,0.6,1.4,1.4C111.3,45.7,110.7,46.4,109.9,46.4
			L109.9,46.4z M130.1,41.9c-1.7,0-3.1,1.4-3.1,3c0,1.7,1.4,3,3.1,3c1.7,0,3.1-1.4,3.1-3C133.1,43.3,131.7,41.9,130.1,41.9
			L130.1,41.9z M130.1,46.4c-0.8,0-1.4-0.6-1.4-1.4c0-0.8,0.6-1.4,1.4-1.4c0.8,0,1.4,0.6,1.4,1.4C131.5,45.7,130.9,46.4,130.1,46.4
			L130.1,46.4z M105.3,62.8l1.4,0.8l5.3-8.8l-1.4-0.8L105.3,62.8z M127.9,54.9l5.3,8.8l1.4-0.8l-5.3-8.8L127.9,54.9z M132.1,31
			c0-2.8-2.3-5.2-5.2-5.2h-13.7c-2.9,0-5.2,2.3-5.2,5.2v8.3h24.2V31z M130.5,37.6h-21V31c0-2,1.6-3.6,3.6-3.6h13.7
			c2,0,3.6,1.6,3.6,3.6V37.6z M130.5,37.6"/>
	</g>
</g>
<g>
	<circle class="st3" cx="200" cy="40" r="40"/>
	<g>
		<path class="st1" d="M206.2,20.6h-12.3c-5.6,0-10.2,4.5-10.2,10.1V53h32.8V30.7C216.4,25.1,211.8,20.6,206.2,20.6L206.2,20.6z
			 M214.8,51.4h-29.6V30.7c0-4.7,3.9-8.5,8.6-8.5h12.3c4.8,0,8.6,3.8,8.6,8.5V51.4z M207.6,16.4h-15.3V18h15.3L207.6,16.4
			L207.6,16.4z M189.9,41.9c-1.7,0-3.1,1.4-3.1,3c0,1.7,1.4,3,3.1,3c1.7,0,3.1-1.4,3.1-3C192.9,43.3,191.6,41.9,189.9,41.9
			L189.9,41.9z M189.9,46.4c-0.8,0-1.4-0.6-1.4-1.4c0-0.8,0.6-1.4,1.4-1.4c0.8,0,1.4,0.6,1.4,1.4C191.3,45.7,190.7,46.4,189.9,46.4
			L189.9,46.4z M210.1,41.9c-1.7,0-3.1,1.4-3.1,3c0,1.7,1.4,3,3.1,3c1.7,0,3.1-1.4,3.1-3C213.1,43.3,211.7,41.9,210.1,41.9
			L210.1,41.9z M210.1,46.4c-0.8,0-1.4-0.6-1.4-1.4c0-0.8,0.6-1.4,1.4-1.4c0.8,0,1.4,0.6,1.4,1.4C211.5,45.7,210.9,46.4,210.1,46.4
			L210.1,46.4z M185.3,62.8l1.4,0.8l5.3-8.8l-1.4-0.8L185.3,62.8z M207.9,54.9l5.3,8.8l1.4-0.8l-5.3-8.8L207.9,54.9z M212.1,31
			c0-2.8-2.3-5.2-5.2-5.2h-13.7c-2.9,0-5.2,2.3-5.2,5.2v8.3h24.2V31z M210.5,37.6h-21V31c0-2,1.6-3.6,3.6-3.6h13.7
			c2,0,3.6,1.6,3.6,3.6V37.6z M210.5,37.6"/>
	</g>
</g>
<g>
	<g>
		<path class="st3" d="M280,3c20.4,0,37,16.6,37,37s-16.6,37-37,37s-37-16.6-37-37S259.6,3,280,3 M280,0c-22.1,0-40,17.9-40,40
			s17.9,40,40,40s40-17.9,40-40S302.1,0,280,0L280,0z"/>
	</g>
	<g>
		<path class="st4" d="M286.2,20.6h-12.3c-5.6,0-10.2,4.5-10.2,10.1V53h32.8V30.7C296.4,25.1,291.8,20.6,286.2,20.6L286.2,20.6z
			 M294.8,51.4h-29.6V30.7c0-4.7,3.9-8.5,8.6-8.5h12.3c4.8,0,8.6,3.8,8.6,8.5V51.4z M287.6,16.4h-15.3V18h15.3L287.6,16.4
			L287.6,16.4z M269.9,41.9c-1.7,0-3.1,1.4-3.1,3c0,1.7,1.4,3,3.1,3c1.7,0,3.1-1.4,3.1-3C272.9,43.3,271.6,41.9,269.9,41.9
			L269.9,41.9z M269.9,46.4c-0.8,0-1.4-0.6-1.4-1.4c0-0.8,0.6-1.4,1.4-1.4c0.8,0,1.4,0.6,1.4,1.4C271.3,45.7,270.7,46.4,269.9,46.4
			L269.9,46.4z M290.1,41.9c-1.7,0-3.1,1.4-3.1,3c0,1.7,1.4,3,3.1,3c1.7,0,3.1-1.4,3.1-3C293.1,43.3,291.7,41.9,290.1,41.9
			L290.1,41.9z M290.1,46.4c-0.8,0-1.4-0.6-1.4-1.4c0-0.8,0.6-1.4,1.4-1.4c0.8,0,1.4,0.6,1.4,1.4C291.5,45.7,290.9,46.4,290.1,46.4
			L290.1,46.4z M265.3,62.8l1.4,0.8l5.3-8.8l-1.4-0.8L265.3,62.8z M287.9,54.9l5.3,8.8l1.4-0.8l-5.3-8.8L287.9,54.9z M292.1,31
			c0-2.8-2.3-5.2-5.2-5.2h-13.7c-2.9,0-5.2,2.3-5.2,5.2v8.3h24.2V31z M290.5,37.6h-21V31c0-2,1.6-3.6,3.6-3.6h13.7
			c2,0,3.6,1.6,3.6,3.6V37.6z M290.5,37.6"/>
	</g>
</g>
</svg>
