<svg xmlns="http://www.w3.org/2000/svg" xmlns:xlink="http://www.w3.org/1999/xlink">
	<symbol id="train" viewBox="0 0 80 80">
		<path d="M46.2,20.6H33.8c-5.6,0-10.2,4.5-10.2,10.1V53h32.8V30.7C56.4,25.1,51.8,20.6,46.2,20.6L46.2,20.6z
		 M54.8,51.4H25.2V30.7c0-4.7,3.9-8.5,8.6-8.5h12.3c4.8,0,8.6,3.8,8.6,8.5V51.4z M47.6,16.4H32.3V18h15.3L47.6,16.4L47.6,16.4z
		 M29.9,41.9c-1.7,0-3.1,1.4-3.1,3c0,1.7,1.4,3,3.1,3c1.7,0,3.1-1.4,3.1-3C32.9,43.3,31.6,41.9,29.9,41.9L29.9,41.9z M29.9,46.4
		c-0.8,0-1.4-0.6-1.4-1.4c0-0.8,0.6-1.4,1.4-1.4c0.8,0,1.4,0.6,1.4,1.4C31.3,45.7,30.7,46.4,29.9,46.4L29.9,46.4z M50.1,41.9
		c-1.7,0-3.1,1.4-3.1,3c0,1.7,1.4,3,3.1,3c1.7,0,3.1-1.4,3.1-3C53.1,43.3,51.7,41.9,50.1,41.9L50.1,41.9z M50.1,46.4
		c-0.8,0-1.4-0.6-1.4-1.4c0-0.8,0.6-1.4,1.4-1.4c0.8,0,1.4,0.6,1.4,1.4C51.5,45.7,50.9,46.4,50.1,46.4L50.1,46.4z M25.3,62.8
		l1.4,0.8l5.3-8.8L30.6,54L25.3,62.8z M47.9,54.9l5.3,8.8l1.4-0.8L49.3,54L47.9,54.9z M52.1,31c0-2.8-2.3-5.2-5.2-5.2H33.1
		c-2.9,0-5.2,2.3-5.2,5.2v8.3h24.2V31z M50.5,37.6h-21V31c0-2,1.6-3.6,3.6-3.6h13.7c2,0,3.6,1.6,3.6,3.6V37.6z M50.5,37.6"/>
	</symbol>

	<symbol id="project-menu" viewBox="0 0 40 40">
		<rect x="9" y="21" width="10" height="10"/>
		<rect x="21" y="21" width="10" height="10"/>
		<rect x="9" y="9" width="10" height="10"/>
		<rect x="21" y="9" width="10" height="10"/>
	</symbol>

	<symbol id="left-arrow" viewBox="0 0 80 10">
		<polygon points="10,4 10,0 0,5 10,10 10,6 80,6 80,4 "/>
	</symbol>

	<symbol id="right-arrow" viewBox="0 0 80 10">
		<polygon points="70,4 70,0 80,5 70,10 70,6 0,6 0,4 "/>
	</symbol>
</svg>