<?xml version="1.0" encoding="utf-8"?>
<!-- Generator: Adobe Illustrator 21.0.2, SVG Export Plug-In . SVG Version: 6.00 Build 0)  -->
<svg version="1.1" id="Layer_1" xmlns="http://www.w3.org/2000/svg" xmlns:xlink="http://www.w3.org/1999/xlink" x="0px" y="0px"
	 viewBox="0 0 186 50" style="enable-background:new 0 0 186 50;" xml:space="preserve">
<style type="text/css">
	.st0{fill:#232E5F;}
	.st1{fill-rule:evenodd;clip-rule:evenodd;fill:#F29100;}
</style>
<g>
	<g>
		<path class="st0" d="M42.5,7H47l9.9,17l9.9-17h4.4l1.5,32.6h-4.6l-1.1-25L57.9,30h-2.3l-9-15.2l-1.1,24.8H41L42.5,7z"/>
		<path class="st0" d="M75.9,7.9h4.9v4.9h-4.9V7.9z M76.2,16.9h4.4v22.7h-4.4V16.9z"/>
		<path class="st0" d="M83.6,7h4.4v19.2l9.5-9.3h5.3l-8.6,8.4l9.9,14.3h-5.2l-7.7-11.4l-3.1,3v8.4h-4.4V7z"/>
		<path class="st0" d="M125.2,36.3c-0.3,0.3-0.7,0.7-1.2,1.1c-0.5,0.5-1.2,0.9-2,1.3c-0.8,0.4-1.8,0.8-2.9,1.1
			c-1.1,0.3-2.4,0.5-3.8,0.5c-1.8,0-3.4-0.3-4.8-0.9c-1.5-0.6-2.7-1.4-3.8-2.5c-1-1.1-1.9-2.4-2.4-3.9c-0.6-1.5-0.9-3.2-0.9-5
			c0-1.7,0.3-3.2,0.8-4.7c0.6-1.5,1.3-2.7,2.3-3.8c1-1.1,2.2-1.9,3.6-2.5c1.4-0.6,2.9-0.9,4.6-0.9c2,0,3.6,0.4,5,1.1
			c1.4,0.8,2.6,1.7,3.4,3c0.9,1.2,1.6,2.7,2,4.3c0.4,1.6,0.6,3.3,0.6,5h-17.9c0,1,0.3,1.9,0.7,2.8c0.4,0.8,1,1.6,1.6,2.2
			c0.7,0.6,1.5,1.1,2.3,1.5c0.9,0.4,1.8,0.5,2.8,0.5c1.9,0,3.5-0.3,4.7-1c1.2-0.7,2.1-1.3,2.7-1.9L125.2,36.3z M121.2,26.3
			c-0.1-1.8-0.8-3.3-1.9-4.5c-1.1-1.2-2.7-1.9-4.7-1.9c-1,0-2,0.2-2.8,0.5c-0.8,0.4-1.5,0.8-2.1,1.4c-0.6,0.6-1,1.3-1.4,2
			c-0.3,0.8-0.5,1.6-0.5,2.4H121.2z"/>
		<path class="st0" d="M129.4,39.6V19.1c0-0.7,0-1.5,0-2.2h4.2l0.1,3.7c0.3-0.4,0.6-0.8,1-1.3c0.4-0.5,0.9-0.9,1.5-1.3
			c0.6-0.4,1.3-0.7,2.1-1c0.8-0.3,1.7-0.4,2.8-0.4c0.5,0,0.9,0,1.3,0.1c0.4,0.1,0.8,0.2,1.1,0.3l-1,4.1c-0.6-0.2-1.3-0.3-2.2-0.3
			c-0.9,0-1.8,0.2-2.6,0.5c-0.8,0.4-1.5,0.9-2.1,1.5c-0.6,0.6-1.1,1.4-1.4,2.2c-0.3,0.8-0.5,1.7-0.5,2.7v12H129.4z"/>
		<path class="st0" d="M146,39.6V19.1c0-0.7,0-1.5,0-2.2h4.2l0.1,3.7c0.3-0.4,0.6-0.8,1-1.3c0.4-0.5,0.9-0.9,1.5-1.3
			c0.6-0.4,1.3-0.7,2.1-1c0.8-0.3,1.7-0.4,2.8-0.4c0.5,0,0.9,0,1.3,0.1c0.4,0.1,0.8,0.2,1.1,0.3l-1,4.1c-0.6-0.2-1.3-0.3-2.2-0.3
			c-0.9,0-1.8,0.2-2.6,0.5c-0.8,0.4-1.5,0.9-2.1,1.5c-0.6,0.6-1.1,1.4-1.4,2.2c-0.3,0.8-0.5,1.7-0.5,2.7v12H146z"/>
		<path class="st0" d="M164.6,45.2c0.3,0.3,0.7,0.6,1.1,0.8c0.4,0.2,0.9,0.3,1.6,0.3c0.5,0,1-0.1,1.3-0.3c0.4-0.2,0.7-0.6,1-1.1
			c0.3-0.5,0.6-1,0.9-1.7c0.3-0.7,0.6-1.4,1-2.3l0.6-1.5L162,16.9h5l7.3,17.2l6.5-17.2h4.8L176.5,39c-0.4,1-0.9,2.2-1.3,3.4
			s-1,2.4-1.6,3.6c-0.7,1.1-1.5,2.1-2.4,2.8c-0.9,0.7-2.1,1.1-3.6,1.1c-1.1,0-2.1-0.2-2.9-0.5c-0.8-0.3-1.5-0.7-2.1-1.2L164.6,45.2z
			"/>
	</g>
	<path class="st1" d="M6.2,37.3c0,0.7,0.2,1.2,0.3,1.7l9.6,1.3c-0.2-0.5-0.3-1-0.5-1.7L6.2,37.3z M7,30.1c-0.2,0.5-0.3,1.2-0.5,1.7
		l9.7,0.7c0.2-0.5,0.3-1.2,0.6-1.7L7,30.1z M11,22.8c-0.3,0.3-0.5,0.7-0.6,1L10,24.7h10.2c0.3-0.3,0.6-0.7,0.8-1.2
		c0.2-0.2,0.3-0.3,0.5-0.7H11z M14,16c-0.2,0.5-0.3,1.2-0.5,1.8l11-0.7c0.2-0.7,0.5-1.3,0.6-1.9v0L14,16z M25.6,7.4L14.5,8.9
		c0.2,0.5,0.2,1,0.3,1.5l11.1-1.2C25.8,8.6,25.8,7.9,25.6,7.4z M5.2,4.5C12.5,3,19.5,1.5,26.7,0c2.4,2.2,3.9,4.2,4.7,6.5l-4.1,0.5
		c0.2,0.7,0.3,1.3,0.3,1.9l4.2-0.5c0.3,2.2,0.2,4.2-0.5,6.4L27,15.1c-0.2,0.7-0.3,1.2-0.5,1.9v0l4.2-0.2c-0.9,2-2,4-3.4,6.2v0h-3.9
		c-0.5,0.7-0.8,1.2-1.3,1.7v0h3.9c-1.6,2.2-2.8,4.4-3.8,6.4l-3.4-0.2c-0.3,0.5-0.5,1-0.8,1.7v0l3.6,0.2c-0.8,2.2-1.1,4.4-0.8,6.6
		L17.6,39c0.2,0.5,0.3,1.2,0.5,1.7l3.1,0.5c0.8,2.2,2.2,4.2,4.5,6.6c-6.4-1.3-13.6-2.7-20.7-4.2C2.9,41.8,1.6,40,1,38.3l3.6,0.5
		c-0.2-0.5-0.2-1.2-0.3-1.7v0l-3.8-0.5c-0.3-1.9,0-3.5,0.5-5.2l3.6,0.2c0.2-0.5,0.3-1,0.5-1.5l-3.4-0.3c0.8-1.9,1.9-3.5,2.8-5v0h3.1
		c0.5-0.7,0.8-1.2,1.3-1.9H5.7c0.9-1.7,1.9-3.2,2.5-4.9l3.3-0.2c0.3-0.5,0.5-1.2,0.8-1.7l-3.4,0.2c0.5-1.8,0.8-3.5,0.5-5.2l3.6-0.5
		c0-0.5-0.2-1-0.3-1.5L9,9.6C8.4,7.7,7.1,6.1,5.2,4.5z"/>
</g>
</svg>
